<?xml version="1.0" encoding="UTF-8" ?>
<!DOCTYPE svg PUBLIC "-//W3C//DTD SVG 1.1//EN" "http://www.w3.org/Graphics/SVG/1.1/DTD/svg11.dtd">
<svg width="822pt" height="282pt" viewBox="0 0 822 282" version="1.1" xmlns="http://www.w3.org/2000/svg">
<g id="#f1f6ffff">
<path fill="#f1f6ff" opacity="1.00" d=" M 122.91 6.81 C 137.53 4.23 152.43 5.92 167.02 7.74 C 166.88 7.96 166.60 8.38 166.46 8.59 C 145.94 10.84 126.36 19.50 110.12 32.13 C 98.75 40.78 89.51 51.90 81.86 63.90 C 76.01 75.04 70.18 86.52 68.21 99.09 C 63.90 118.10 64.96 138.13 70.21 156.85 C 80.14 190.34 105.53 219.13 138.20 231.90 C 140.09 232.60 141.95 233.38 143.78 234.23 C 144.81 234.48 145.84 234.77 146.85 235.10 C 161.36 239.67 176.76 241.66 191.95 240.42 C 199.76 239.44 207.57 238.30 215.14 236.12 C 219.98 234.19 225.07 232.95 229.81 230.76 C 238.79 226.36 247.61 221.49 255.28 215.00 C 237.59 243.85 207.82 264.46 175.28 273.13 C 168.30 274.68 161.24 275.81 154.17 276.82 C 140.07 278.04 125.81 277.04 111.99 274.03 C 109.59 273.40 107.21 272.71 104.80 272.15 C 69.37 262.59 38.49 237.84 21.33 205.41 C 16.65 196.35 12.60 186.88 10.09 176.98 C 9.65 175.67 9.29 174.34 8.86 173.04 C 5.78 158.23 4.25 143.01 5.84 127.91 C 6.40 124.93 6.68 121.92 6.92 118.90 C 8.89 109.99 10.38 100.85 14.25 92.50 C 20.21 76.97 29.06 62.59 40.15 50.21 C 61.45 26.65 91.32 10.74 122.91 6.81 Z" />
<path fill="#f1f6ff" opacity="1.00" d=" M 196.95 62.00 C 207.12 62.00 217.30 62.00 227.48 62.00 C 224.51 76.11 221.50 90.21 218.12 104.23 C 220.44 101.51 222.30 98.40 224.93 95.95 C 231.29 89.60 241.36 87.41 249.86 90.04 C 255.97 92.13 258.32 99.17 257.66 105.09 C 256.27 116.87 252.65 128.26 250.98 139.99 C 250.73 142.89 250.24 146.95 253.32 148.55 C 256.66 149.85 259.88 147.65 262.66 146.04 C 263.68 147.49 264.70 148.93 265.72 150.37 C 261.32 154.94 255.53 158.38 249.11 158.90 C 243.74 159.40 237.42 158.69 233.85 154.16 C 231.09 150.79 231.15 146.16 231.55 142.06 C 232.57 130.88 236.39 120.18 237.63 109.04 C 237.88 105.96 237.81 101.74 234.54 100.23 C 230.00 98.70 226.16 102.61 223.61 105.84 C 217.93 113.51 214.31 122.60 212.40 131.91 C 210.48 140.62 208.47 149.31 206.57 158.02 C 200.24 158.11 193.91 158.04 187.58 158.06 C 193.16 131.63 198.72 105.20 204.34 78.79 C 204.85 75.96 205.92 72.62 204.10 70.06 C 201.84 68.09 198.52 68.88 195.77 68.66 C 196.16 66.44 196.55 64.22 196.95 62.00 Z" />
<path fill="#f1f6ff" opacity="1.00" d=" M 150.96 68.00 C 165.49 68.00 180.01 68.00 194.54 68.00 C 194.06 70.22 193.59 72.43 193.11 74.65 C 187.97 74.37 181.01 75.39 179.76 81.42 C 174.19 107.22 168.88 133.08 163.34 158.89 C 161.18 169.66 153.84 179.28 143.88 183.99 C 134.98 188.14 124.49 189.28 115.00 186.58 C 115.63 184.28 116.23 181.97 116.82 179.67 C 122.65 181.16 129.69 181.74 134.52 177.44 C 139.70 172.66 141.77 165.58 143.33 158.93 C 148.91 132.94 154.37 106.93 159.97 80.95 C 160.40 79.28 160.59 76.99 158.82 76.02 C 156.05 74.38 152.67 74.87 149.60 74.66 C 150.06 72.44 150.51 70.22 150.96 68.00 Z" />
<path fill="#f1f6ff" opacity="1.00" d=" M 475.95 68.00 C 487.68 68.00 499.41 68.00 511.14 68.00 C 513.97 88.37 516.80 108.73 519.62 129.10 C 530.67 108.74 541.53 88.28 552.64 67.95 C 564.77 68.07 576.90 67.96 589.04 68.00 C 588.58 70.21 588.13 72.42 587.69 74.63 C 584.06 74.78 579.96 74.60 577.02 77.09 C 574.67 79.07 574.15 82.25 573.56 85.09 C 569.35 105.41 565.08 125.72 560.85 146.03 C 560.34 147.67 561.05 149.59 562.70 150.24 C 565.41 151.46 568.49 151.13 571.40 151.28 C 570.92 153.54 570.47 155.80 570.00 158.06 C 555.67 158.06 541.35 158.06 527.02 158.06 C 527.47 155.80 527.92 153.54 528.39 151.29 C 531.97 151.20 536.01 151.39 538.94 148.94 C 541.24 147.17 541.77 144.17 542.32 141.50 C 546.47 121.27 551.02 101.12 554.97 80.86 C 541.34 106.65 527.31 132.22 513.64 157.99 C 510.70 158.09 507.76 158.07 504.82 158.06 C 501.37 132.28 498.11 106.47 494.56 80.71 C 490.18 101.79 485.58 122.83 481.15 143.90 C 480.91 145.69 480.08 147.92 481.55 149.42 C 483.96 151.48 487.36 151.09 490.32 151.24 C 489.82 153.51 489.34 155.78 488.87 158.06 C 478.27 158.06 467.68 158.06 457.08 158.06 C 457.53 155.80 457.98 153.55 458.45 151.29 C 462.01 151.18 466.06 151.40 468.93 148.87 C 470.57 147.54 471.28 145.47 471.72 143.48 C 476.04 123.15 480.31 102.81 484.68 82.50 C 485.05 80.41 486.07 77.54 483.89 76.09 C 481.12 74.36 477.68 74.87 474.58 74.66 C 475.04 72.44 475.49 70.22 475.95 68.00 Z" />
<path fill="#f1f6ff" opacity="1.00" d=" M 309.15 89.16 C 316.86 88.48 325.30 89.59 331.43 94.71 C 337.04 99.38 339.59 106.83 339.71 113.97 C 340.08 127.02 334.82 140.29 325.19 149.19 C 315.35 158.22 300.60 161.29 287.89 157.38 C 280.40 155.15 274.72 148.61 272.98 141.07 C 270.28 129.11 273.46 116.26 280.24 106.20 C 286.58 96.46 297.57 90.05 309.15 89.16 M 307.22 98.19 C 301.73 100.63 298.55 106.23 296.28 111.52 C 292.59 120.80 290.51 130.99 291.74 140.97 C 292.16 145.28 295.30 149.63 299.91 149.87 C 305.53 150.55 310.06 146.18 312.75 141.74 C 317.58 133.66 319.51 124.19 320.33 114.92 C 320.53 110.23 320.80 105.04 318.11 100.95 C 315.77 97.50 310.92 96.66 307.22 98.19 Z" />
<path fill="#f1f6ff" opacity="1.00" d=" M 385.88 95.84 C 392.13 89.68 401.83 87.58 410.19 89.85 C 416.55 91.71 419.22 98.88 418.54 104.97 C 417.21 117.13 413.38 128.88 411.93 141.02 C 411.71 143.65 411.60 147.24 414.40 148.57 C 417.72 149.82 420.91 147.68 423.65 146.04 C 424.66 147.49 425.68 148.93 426.71 150.38 C 422.34 155.00 416.49 158.40 410.06 158.91 C 404.67 159.39 398.33 158.67 394.77 154.11 C 391.85 150.46 392.14 145.50 392.64 141.14 C 394.01 130.28 397.13 119.73 398.54 108.89 C 398.88 105.70 398.52 101.31 395.00 100.05 C 390.96 99.06 387.58 102.22 385.17 105.03 C 379.64 111.97 376.09 120.34 373.94 128.90 C 371.79 138.62 369.71 148.34 367.59 158.06 C 361.26 158.06 354.93 158.06 348.61 158.06 C 352.23 140.76 355.88 123.47 359.49 106.17 C 359.91 103.52 360.80 100.32 358.95 98.01 C 356.77 96.26 353.74 96.91 351.15 96.72 C 351.52 94.48 351.88 92.25 352.24 90.01 C 361.61 89.98 370.97 90.01 380.33 90.00 C 379.87 94.75 379.24 99.49 378.93 104.25 C 381.29 101.48 383.19 98.32 385.88 95.84 Z" />
<path fill="#f1f6ff" opacity="1.00" d=" M 621.10 89.16 C 628.80 88.48 637.25 89.57 643.39 94.68 C 649.04 99.35 651.59 106.83 651.71 113.99 C 652.07 127.04 646.81 140.30 637.19 149.19 C 627.33 158.23 612.54 161.30 599.82 157.36 C 592.37 155.11 586.71 148.58 584.98 141.06 C 582.38 129.61 585.23 117.32 591.41 107.46 C 597.67 97.09 609.01 90.08 621.10 89.16 M 619.19 98.20 C 612.78 101.17 609.52 108.06 607.20 114.34 C 604.27 122.84 602.58 132.00 603.74 140.98 C 604.16 145.30 607.30 149.63 611.91 149.87 C 617.52 150.55 622.04 146.19 624.74 141.77 C 629.57 133.68 631.51 124.19 632.33 114.91 C 632.53 110.25 632.79 105.10 630.15 101.02 C 627.83 97.51 622.92 96.64 619.19 98.20 Z" />
<path fill="#f1f6ff" opacity="1.00" d=" M 698.07 89.17 C 705.76 88.48 714.20 89.56 720.34 94.64 C 726.01 99.30 728.59 106.78 728.71 113.95 C 729.08 127.02 723.81 140.31 714.17 149.21 C 704.31 158.24 689.54 161.30 676.83 157.36 C 669.65 155.19 664.08 149.06 662.20 141.85 C 659.34 130.82 661.85 118.87 667.42 109.09 C 673.54 97.91 685.32 90.10 698.07 89.17 M 696.26 98.17 C 690.72 100.62 687.53 106.26 685.26 111.59 C 681.58 120.84 679.51 131.01 680.74 140.96 C 681.15 145.28 684.29 149.62 688.89 149.87 C 694.53 150.56 699.06 146.18 701.76 141.73 C 706.42 133.94 708.35 124.83 709.26 115.89 C 709.54 111.09 709.88 105.86 707.48 101.51 C 705.31 97.67 700.16 96.54 696.26 98.17 Z" />
<path fill="#f1f6ff" opacity="1.00" d=" M 775.90 95.83 C 782.14 89.68 791.82 87.59 800.18 89.84 C 806.56 91.71 809.23 98.92 808.53 105.04 C 807.19 117.16 803.38 128.87 801.94 140.98 C 801.71 143.60 801.58 147.18 804.35 148.55 C 807.67 149.85 810.89 147.68 813.65 146.04 C 814.66 147.49 815.68 148.93 816.71 150.38 C 810.20 157.63 799.51 161.03 790.15 157.92 C 785.15 156.34 781.99 151.13 782.33 145.98 C 782.82 133.09 787.28 120.75 788.60 107.97 C 788.82 105.01 788.18 101.07 784.93 100.04 C 780.62 99.07 777.16 102.60 774.69 105.62 C 768.62 113.58 764.95 123.18 763.04 132.96 C 761.23 141.32 759.39 149.68 757.60 158.05 C 751.27 158.07 744.93 158.06 738.61 158.06 C 742.23 140.75 745.88 123.45 749.50 106.14 C 749.91 103.52 750.77 100.39 749.00 98.07 C 746.84 96.24 743.75 96.92 741.15 96.72 C 741.51 94.49 741.88 92.25 742.24 90.01 C 751.60 89.98 760.97 90.01 770.33 90.00 C 769.87 94.76 769.24 99.50 768.93 104.27 C 771.28 101.48 773.19 98.31 775.90 95.83 Z" />
</g>
</svg>
